<?xml version="1.0" standalone="no"?>
<!DOCTYPE svg PUBLIC "-//W3C//DTD SVG 20010904//EN"
 "http://www.w3.org/TR/2001/REC-SVG-20010904/DTD/svg10.dtd">
<svg version="1.0" xmlns="http://www.w3.org/2000/svg"
 width="512.000000pt" height="512.000000pt" viewBox="0 0 512.000000 512.000000"
 preserveAspectRatio="xMidYMid meet">

<g transform="translate(0.000000,512.000000) scale(0.100000,-0.100000)"
fill="#fff" stroke="none">
<path d="M1278 4263 c-843 -535 -1260 -805 -1267 -820 -8 -17 -11 -286 -11
-858 l0 -834 23 -25 c26 -30 2399 -1644 2439 -1660 20 -7 36 -7 55 0 16 6 602
374 1304 817 921 583 1279 814 1287 832 9 19 12 249 12 860 l0 834 -22 24
c-13 14 -277 189 -588 389 -311 200 -869 561 -1241 801 -498 322 -684 437
-705 437 -21 0 -369 -216 -1286 -797z m1192 -166 l0 -702 -570 -363 -571 -362
-534 362 c-294 200 -534 365 -534 368 -1 6 2190 1397 2202 1399 4 1 7 -315 7
-702z m1286 -3 c602 -388 1094 -709 1094 -714 0 -11 -1082 -696 -1093 -692 -6
2 -257 163 -558 358 l-549 356 0 699 c0 384 3 699 6 699 4 0 499 -318 1100
-706z m-684 -1180 c277 -179 506 -328 510 -332 9 -9 -1078 -698 -1094 -694
-21 6 -988 667 -985 675 2 7 1047 675 1059 676 4 1 233 -146 510 -325z m-2382
-27 c250 -170 459 -312 463 -317 7 -6 -951 -620 -968 -620 -3 0 -5 289 -5 641
l0 641 28 -18 c15 -9 232 -157 482 -327z m4250 -322 l0 -645 -67 44 c-420 269
-930 599 -935 605 -7 6 975 638 995 640 4 1 7 -289 7 -644z m-622 -458 c298
-193 539 -354 535 -358 -15 -12 -2242 -1419 -2258 -1425 -13 -6 -15 69 -15
697 l1 704 587 371 c323 204 592 369 597 366 6 -3 254 -163 553 -355z m-2445
-22 l527 -358 0 -704 0 -703 -203 137 c-111 76 -593 403 -1070 727 -477 324
-864 592 -860 597 31 30 1051 668 1064 665 9 -2 253 -164 542 -361z"/>
</g>
</svg>
